<mxfile host="Electron" modified="2024-01-17T11:40:28.299Z" agent="Mozilla/5.0 (X11; Linux x86_64) AppleWebKit/537.36 (KHTML, like Gecko) draw.io/22.1.18 Chrome/120.0.6099.199 Electron/28.1.2 Safari/537.36" etag="OJBIUU39NK8P8DDJhOH6" version="22.1.18" type="device">
  <diagram name="Page-1" id="nONDjBaq5zLHtIvz9lS9">
    <mxGraphModel dx="2284" dy="1978" grid="1" gridSize="10" guides="1" tooltips="1" connect="1" arrows="1" fold="1" page="1" pageScale="1" pageWidth="850" pageHeight="1100" math="0" shadow="0">
      <root>
        <mxCell id="0" />
        <mxCell id="1" parent="0" />
        <mxCell id="a7iSN0XRIdKCocgI0kgx-9" value="" style="rounded=0;whiteSpace=wrap;html=1;" parent="1" vertex="1">
          <mxGeometry x="-730" y="-850" width="320" height="780" as="geometry" />
        </mxCell>
        <mxCell id="a7iSN0XRIdKCocgI0kgx-2" value="&lt;div style=&quot;line-height: 19px;&quot;&gt;&lt;font face=&quot;Hack, Droid Sans Mono, monospace, monospace&quot;&gt;Health insurance bridges gap for poor families Free medical care can help children get out of poverty official says [START_ENT] Birmingham [END_ENT] Ala For years Al Rohling watched parents quit their jobs when their kids got sick deliberately making their incomes drop to a point where they could get U S government medical ...&lt;/font&gt;&lt;br&gt;&lt;/div&gt;" style="text;html=1;strokeColor=none;fillColor=none;align=center;verticalAlign=middle;whiteSpace=wrap;rounded=0;" parent="1" vertex="1">
          <mxGeometry x="-780" y="-980" width="420" as="geometry" />
        </mxCell>
        <mxCell id="a7iSN0XRIdKCocgI0kgx-3" style="edgeStyle=orthogonalEdgeStyle;rounded=0;orthogonalLoop=1;jettySize=auto;html=1;exitX=0;exitY=0;exitDx=0;exitDy=0;" parent="1" source="a7iSN0XRIdKCocgI0kgx-2" target="a7iSN0XRIdKCocgI0kgx-2" edge="1">
          <mxGeometry relative="1" as="geometry" />
        </mxCell>
        <mxCell id="a7iSN0XRIdKCocgI0kgx-5" value="&lt;font style=&quot;font-size: 17px;&quot;&gt;The Fed (Columbia newspaper)&lt;/font&gt;" style="rounded=1;whiteSpace=wrap;html=1;" parent="1" vertex="1">
          <mxGeometry x="-680" y="-780" width="220" height="60" as="geometry" />
        </mxCell>
        <mxCell id="a7iSN0XRIdKCocgI0kgx-6" value="&lt;font style=&quot;font-size: 17px;&quot;&gt;Not In Candidates&lt;/font&gt;" style="rounded=1;whiteSpace=wrap;html=1;" parent="1" vertex="1">
          <mxGeometry x="-680" y="-690" width="220" height="60" as="geometry" />
        </mxCell>
        <mxCell id="a7iSN0XRIdKCocgI0kgx-7" value="&lt;font style=&quot;font-size: 17px;&quot;&gt;Birmingham, Alabama&amp;nbsp;&lt;/font&gt;" style="rounded=1;whiteSpace=wrap;html=1;" parent="1" vertex="1">
          <mxGeometry x="-680" y="-600" width="220" height="60" as="geometry" />
        </mxCell>
        <mxCell id="a7iSN0XRIdKCocgI0kgx-8" value="&lt;font style=&quot;font-size: 19px;&quot;&gt;Candidates&lt;/font&gt;" style="text;html=1;strokeColor=none;fillColor=none;align=center;verticalAlign=middle;whiteSpace=wrap;rounded=0;" parent="1" vertex="1">
          <mxGeometry x="-600" y="-840" width="60" height="30" as="geometry" />
        </mxCell>
        <mxCell id="a7iSN0XRIdKCocgI0kgx-14" style="edgeStyle=orthogonalEdgeStyle;rounded=0;orthogonalLoop=1;jettySize=auto;html=1;exitX=1;exitY=0.5;exitDx=0;exitDy=0;entryX=0;entryY=0.5;entryDx=0;entryDy=0;" parent="1" source="a7iSN0XRIdKCocgI0kgx-10" target="a7iSN0XRIdKCocgI0kgx-13" edge="1">
          <mxGeometry relative="1" as="geometry" />
        </mxCell>
        <mxCell id="a7iSN0XRIdKCocgI0kgx-10" value="&lt;font style=&quot;font-size: 16px;&quot;&gt;MODEL&lt;/font&gt;" style="rounded=0;whiteSpace=wrap;html=1;" parent="1" vertex="1">
          <mxGeometry x="-80" y="-790" width="210" height="110" as="geometry" />
        </mxCell>
        <mxCell id="a7iSN0XRIdKCocgI0kgx-11" value="" style="endArrow=classic;html=1;rounded=0;exitX=1;exitY=0.25;exitDx=0;exitDy=0;entryX=0;entryY=0.5;entryDx=0;entryDy=0;" parent="1" source="a7iSN0XRIdKCocgI0kgx-9" target="a7iSN0XRIdKCocgI0kgx-10" edge="1">
          <mxGeometry width="50" height="50" relative="1" as="geometry">
            <mxPoint x="-460" y="-670" as="sourcePoint" />
            <mxPoint x="-410" y="-720" as="targetPoint" />
          </mxGeometry>
        </mxCell>
        <mxCell id="a7iSN0XRIdKCocgI0kgx-12" value="" style="endArrow=classic;html=1;rounded=0;entryX=0;entryY=0.5;entryDx=0;entryDy=0;" parent="1" target="a7iSN0XRIdKCocgI0kgx-10" edge="1">
          <mxGeometry width="50" height="50" relative="1" as="geometry">
            <mxPoint x="-360" y="-1000" as="sourcePoint" />
            <mxPoint x="-410" y="-720" as="targetPoint" />
          </mxGeometry>
        </mxCell>
        <mxCell id="a7iSN0XRIdKCocgI0kgx-13" value="Birmingham" style="rounded=1;whiteSpace=wrap;html=1;fontSize=17;labelBackgroundColor=#FF3333;fillColor=#FF3333;strokeColor=#82b366;" parent="1" vertex="1">
          <mxGeometry x="290" y="-765" width="120" height="60" as="geometry" />
        </mxCell>
        <mxCell id="a7iSN0XRIdKCocgI0kgx-15" value="" style="endArrow=classic;html=1;rounded=0;exitX=1.003;exitY=0.437;exitDx=0;exitDy=0;exitPerimeter=0;" parent="1" source="a7iSN0XRIdKCocgI0kgx-9" edge="1">
          <mxGeometry width="50" height="50" relative="1" as="geometry">
            <mxPoint x="-60" y="-650" as="sourcePoint" />
            <mxPoint x="290" y="-505" as="targetPoint" />
          </mxGeometry>
        </mxCell>
        <mxCell id="a7iSN0XRIdKCocgI0kgx-16" value="&lt;font style=&quot;font-size: 22px;&quot;&gt;Correct Candidate&lt;/font&gt;" style="edgeLabel;html=1;align=center;verticalAlign=middle;resizable=0;points=[];" parent="a7iSN0XRIdKCocgI0kgx-15" vertex="1" connectable="0">
          <mxGeometry x="0.1002" y="2" relative="1" as="geometry">
            <mxPoint as="offset" />
          </mxGeometry>
        </mxCell>
        <mxCell id="a7iSN0XRIdKCocgI0kgx-17" value="Birmingham, Alabama" style="rounded=1;whiteSpace=wrap;html=1;fontSize=17;" parent="1" vertex="1">
          <mxGeometry x="290" y="-540" width="120" height="70" as="geometry" />
        </mxCell>
        <mxCell id="S6OmCBnFVE7zzNdJfXtL-1" value="&lt;font style=&quot;font-size: 17px;&quot;&gt;Birmingham City F.C.&lt;/font&gt;" style="rounded=1;whiteSpace=wrap;html=1;" vertex="1" parent="1">
          <mxGeometry x="-680" y="-510" width="220" height="60" as="geometry" />
        </mxCell>
        <mxCell id="S6OmCBnFVE7zzNdJfXtL-2" value="&lt;font style=&quot;font-size: 17px;&quot;&gt;Birmingham, Michigan&lt;/font&gt;" style="rounded=1;whiteSpace=wrap;html=1;" vertex="1" parent="1">
          <mxGeometry x="-680" y="-420" width="220" height="60" as="geometry" />
        </mxCell>
        <mxCell id="S6OmCBnFVE7zzNdJfXtL-3" value="&lt;font style=&quot;font-size: 17px;&quot;&gt;Birmingham Airport&lt;/font&gt;" style="rounded=1;whiteSpace=wrap;html=1;" vertex="1" parent="1">
          <mxGeometry x="-680" y="-330" width="220" height="60" as="geometry" />
        </mxCell>
        <mxCell id="S6OmCBnFVE7zzNdJfXtL-5" value="&lt;font style=&quot;font-size: 17px;&quot;&gt;University of Birmingham&lt;/font&gt;" style="rounded=1;whiteSpace=wrap;html=1;" vertex="1" parent="1">
          <mxGeometry x="-680" y="-240" width="220" height="60" as="geometry" />
        </mxCell>
        <mxCell id="S6OmCBnFVE7zzNdJfXtL-6" value="&lt;font style=&quot;font-size: 17px;&quot;&gt;...&lt;/font&gt;" style="rounded=1;whiteSpace=wrap;html=1;" vertex="1" parent="1">
          <mxGeometry x="-680" y="-150" width="220" height="60" as="geometry" />
        </mxCell>
      </root>
    </mxGraphModel>
  </diagram>
</mxfile>
